<svg width="1920" height="1010" viewBox="0 0 1920 1010" fill="none" xmlns="http://www.w3.org/2000/svg">
<rect width="1920" height="1014" fill="#8CACC5"/>
<path d="M1483.67 912.986C1479.78 907.915 1482.63 931.594 1477.59 934.055C1475.4 935.485 1460.97 937.99 1457 926.267C1453.72 916.601 1459.57 897.977 1460.81 893.448C1465.77 875.262 1489 871.479 1497.59 871.516C1506.18 871.553 1523.28 879.197 1528.16 885.374C1533.05 891.551 1537.95 897.292 1527.07 910.059C1520.31 917.993 1503.33 901.494 1502.52 904.392C1501.31 908.742 1525.19 967.18 1483.67 912.986Z" stroke="white" stroke-width="6"/>
<path d="M1189.74 21.2426C1194.3 21.3367 1179.8 12.3505 1180.68 8.43471C1180.86 6.571 1185.91 -2.61107 1194.23 0.4063C1201.09 2.89401 1208.88 14.4818 1210.86 17.1964C1218.8 28.0954 1210.54 42.767 1206.68 47.5501C1202.82 52.3333 1190.91 58.473 1185.28 58.4457C1179.64 58.4184 1174.25 58.5908 1171.98 46.8051C1170.57 39.4822 1187.37 37.3642 1186.11 35.6188C1184.22 32.9994 1140.91 20.237 1189.74 21.2426Z" stroke="white" stroke-width="6"/>
<path d="M412.622 734.284C416.205 731.447 399.303 733.752 397.486 730.174C396.438 728.623 394.481 718.33 402.819 715.355C409.694 712.903 423.08 716.876 426.334 717.709C439.396 721.056 442.368 737.631 442.44 743.776C442.512 749.92 437.241 762.237 432.88 765.805C428.518 769.372 424.468 772.941 415.213 765.3C409.462 760.552 421.067 748.219 418.984 747.675C415.86 746.858 374.341 764.601 412.622 734.284Z" stroke="white" stroke-width="6"/>
<path d="M126.968 358.453C134.33 361.601 116.662 337.493 120.654 331.705C122.169 328.794 136.389 317.183 147.936 327.543C157.456 336.085 162.517 360.022 163.95 365.73C169.706 388.646 146.656 407.067 137.251 412.31C127.847 417.553 104.472 419.722 95.3338 415.984C86.1958 412.245 77.3156 408.987 81.3554 388.348C83.8656 375.525 112.556 383.099 111.655 379.438C110.302 373.943 48.2938 324.808 126.968 358.453Z" stroke="#183851" stroke-width="6"/>
<path d="M1734.19 161.596C1734.08 154.401 1733 148.871 1735.46 142.534C1737.54 136.897 1740.71 131.729 1744.79 127.329L1745.24 126.85L1749.69 122.671C1751.22 121.236 1753.19 120.361 1755.27 120.187L1758.08 119.952C1762.84 119.555 1765.89 114.705 1764.19 110.243C1763.7 108.983 1763.59 107.612 1763.85 106.289L1764.37 103.679C1764.6 102.513 1764.96 101.375 1765.43 100.285L1765.72 99.6395C1766.45 97.9645 1767.38 96.3835 1768.49 94.9303L1769.8 93.2228L1771.42 91.517C1772.45 90.435 1773.56 89.4286 1774.74 88.5056C1777.33 86.4694 1780.23 84.8577 1783.33 83.7307L1784.13 83.442L1789.89 81.5357C1792.66 80.6219 1795.51 80.0172 1798.41 79.7328L1799.27 79.6484C1802.74 79.3077 1806.24 79.5055 1809.65 80.2347C1812.06 80.7489 1814.4 81.5237 1816.63 82.5452L1823.48 85.6735L1825.16 86.6547C1829.23 89.0318 1833.01 91.8791 1836.42 95.1381L1837.03 95.7286C1839 97.6063 1840.82 99.6611 1842.45 101.834C1844.26 104.241 1845.86 106.83 1847.19 109.526C1848.87 112.896 1850.15 116.448 1851.01 120.11L1851.66 122.866L1852.51 126.466C1853.12 129.069 1853.46 131.73 1853.51 134.404C1853.58 137.828 1853.18 141.245 1852.33 144.562L1849.28 156.479C1845.19 167.704 1838.52 178.715 1836.66 180.219C1834.79 181.724 1826.74 191.93 1813.92 198.059L1813.19 198.308C1808.56 199.895 1803.77 201.002 1798.91 201.612C1792.9 202.824 1786.74 203.006 1780.67 202.151L1779.59 201.999L1778.66 201.783C1773.17 200.506 1767.89 198.411 1763.02 195.566L1756.13 191.543L1754.28 190.13C1750.7 187.399 1747.47 184.235 1744.66 180.712C1742.98 178.599 1741.05 176.676 1739.45 174.496C1735.79 169.496 1734.22 163.41 1734.19 161.596Z" stroke="white" stroke-width="4"/>
<path d="M1765.66 154.143L1768 153.175C1768.05 153.155 1768.1 153.131 1768.14 153.103C1768.58 152.798 1768.56 152.133 1768.09 151.86L1767.26 151.374C1766.04 150.662 1764.73 150.11 1763.37 149.731L1763.3 149.712L1762.04 149.469C1761.78 149.417 1761.51 149.402 1761.24 149.425L1760.56 149.481C1760.02 149.526 1759.54 149.831 1759.27 150.298C1759.18 150.445 1759.12 150.604 1759.08 150.77L1758.91 151.506C1758.81 151.975 1758.89 152.467 1759.15 152.875C1759.3 153.127 1759.52 153.336 1759.77 153.486L1760.29 153.786C1760.6 153.97 1760.94 154.112 1761.29 154.21L1761.88 154.373C1762.54 154.557 1763.23 154.623 1763.92 154.565C1764.52 154.515 1765.11 154.373 1765.66 154.143Z" stroke="white" stroke-width="4"/>
<path d="M1780.37 174.174L1780.32 171.745C1780.32 171.696 1780.31 171.648 1780.3 171.601C1780.19 171.092 1779.61 170.875 1779.21 171.192L1778.57 171.685C1777.58 172.46 1776.7 173.37 1775.94 174.392L1775.9 174.451L1775.3 175.418C1775.16 175.643 1775.05 175.888 1774.98 176.145L1774.82 176.688C1774.68 177.197 1774.77 177.744 1775.08 178.164C1775.17 178.293 1775.28 178.407 1775.41 178.502L1776.01 178.963C1776.34 179.218 1776.76 179.327 1777.17 179.268C1777.45 179.228 1777.71 179.117 1777.93 178.945L1778.32 178.634C1778.58 178.434 1778.81 178.198 1779 177.934L1779.31 177.52C1779.69 177 1779.98 176.413 1780.16 175.787C1780.31 175.262 1780.38 174.718 1780.37 174.174Z" stroke="white" stroke-width="4"/>
<path d="M1794.53 173.129L1792.65 171.724C1792.61 171.696 1792.57 171.672 1792.53 171.652C1792.07 171.437 1791.52 171.776 1791.49 172.292L1791.45 173.083C1791.38 174.334 1791.48 175.582 1791.76 176.79L1791.77 176.862L1792.11 177.91C1792.19 178.157 1792.3 178.391 1792.45 178.603L1792.76 179.044C1793.05 179.464 1793.53 179.715 1794.05 179.722C1794.21 179.724 1794.37 179.703 1794.52 179.66L1795.28 179.452C1795.69 179.338 1796.04 179.071 1796.27 178.707C1796.42 178.465 1796.51 178.191 1796.53 177.911L1796.56 177.411C1796.57 177.088 1796.55 176.765 1796.48 176.452L1796.36 175.965C1796.22 175.347 1795.97 174.766 1795.61 174.25C1795.31 173.821 1794.95 173.443 1794.53 173.129Z" stroke="white" stroke-width="4"/>
<path d="M1802.84 164.999L1800.43 165.047C1800.38 165.048 1800.33 165.054 1800.29 165.064C1799.77 165.178 1799.53 165.796 1799.82 166.242L1800.21 166.838C1800.88 167.855 1801.69 168.763 1802.61 169.534L1802.67 169.585L1803.53 170.182C1803.76 170.337 1804 170.456 1804.26 170.536L1804.72 170.677C1805.23 170.834 1805.78 170.743 1806.22 170.428C1806.35 170.334 1806.47 170.222 1806.57 170.096L1807.11 169.437C1807.37 169.12 1807.5 168.714 1807.48 168.303C1807.47 168.011 1807.38 167.731 1807.22 167.49L1806.97 167.106C1806.8 166.842 1806.59 166.606 1806.35 166.405L1806 166.115C1805.51 165.705 1804.94 165.397 1804.34 165.21C1803.85 165.06 1803.35 164.988 1802.84 164.999Z" stroke="white" stroke-width="4"/>
<path d="M1826.84 129.061L1824.47 129.692C1824.43 129.704 1824.38 129.721 1824.34 129.742C1823.86 129.977 1823.77 130.633 1824.16 130.997L1824.67 131.465C1825.56 132.282 1826.56 132.959 1827.65 133.477L1827.72 133.512L1828.7 133.875C1828.96 133.971 1829.23 134.027 1829.51 134.041L1829.97 134.066C1830.52 134.095 1831.04 133.873 1831.4 133.462C1831.51 133.341 1831.6 133.205 1831.67 133.059L1832.05 132.286C1832.23 131.925 1832.27 131.508 1832.15 131.12C1832.07 130.84 1831.92 130.589 1831.7 130.394L1831.37 130.089C1831.14 129.877 1830.88 129.7 1830.6 129.566L1830.2 129.374C1829.62 129.096 1828.99 128.936 1828.35 128.902C1827.84 128.875 1827.33 128.929 1826.84 129.061Z" stroke="white" stroke-width="4"/>
<path d="M1822.63 142.282L1820.31 141.78C1820.26 141.77 1820.21 141.765 1820.17 141.764C1819.65 141.759 1819.27 142.304 1819.46 142.8L1819.71 143.494C1820.13 144.648 1820.71 145.728 1821.43 146.7L1821.48 146.762L1822.19 147.555C1822.37 147.754 1822.57 147.924 1822.8 148.06L1823.23 148.313C1823.68 148.58 1824.23 148.615 1824.72 148.407C1824.87 148.344 1825.01 148.261 1825.14 148.16L1825.79 147.644C1826.11 147.386 1826.33 147.011 1826.4 146.597C1826.45 146.311 1826.43 146.018 1826.33 145.751L1826.17 145.306C1826.06 145.007 1825.91 144.726 1825.72 144.474L1825.44 144.099C1825.06 143.589 1824.59 143.161 1824.05 142.84C1823.61 142.578 1823.13 142.39 1822.63 142.282Z" stroke="white" stroke-width="4"/>
<path d="M1770.51 142.213L1772.76 142.967C1772.8 142.981 1772.85 142.992 1772.89 142.997C1773.4 143.059 1773.83 142.56 1773.71 142.051L1773.53 141.319C1773.23 140.12 1772.77 138.978 1772.15 137.927L1772.11 137.861L1771.49 136.988C1771.34 136.772 1771.15 136.582 1770.94 136.423L1770.54 136.118C1770.12 135.804 1769.58 135.711 1769.08 135.865C1768.92 135.911 1768.77 135.979 1768.64 136.067L1767.95 136.506C1767.6 136.732 1767.33 137.085 1767.22 137.492C1767.14 137.771 1767.14 138.063 1767.21 138.339L1767.32 138.805C1767.4 139.116 1767.52 139.412 1767.68 139.685L1767.92 140.096C1768.24 140.643 1768.66 141.119 1769.16 141.498C1769.57 141.808 1770.03 142.05 1770.51 142.213Z" stroke="white" stroke-width="4"/>
<path d="M1799.02 108.573L1800.66 110.255C1800.7 110.289 1800.73 110.319 1800.77 110.345C1801.19 110.628 1801.78 110.379 1801.88 109.876L1802.04 109.085C1802.29 107.85 1802.37 106.592 1802.28 105.346L1802.27 105.274L1802.09 104.174C1802.05 103.919 1801.97 103.672 1801.86 103.44L1801.62 102.945C1801.39 102.487 1800.96 102.166 1800.45 102.08C1800.29 102.053 1800.13 102.05 1799.97 102.069L1799.21 102.161C1798.78 102.212 1798.39 102.425 1798.11 102.754C1797.93 102.97 1797.81 103.227 1797.75 103.501L1797.65 103.998C1797.59 104.318 1797.56 104.643 1797.59 104.965L1797.63 105.473C1797.68 106.105 1797.84 106.72 1798.12 107.286C1798.35 107.761 1798.65 108.195 1799.02 108.573Z" stroke="white" stroke-width="4"/>
<path d="M1810.7 106.864L1810.48 109.3C1810.47 109.349 1810.47 109.397 1810.48 109.445C1810.53 109.968 1811.08 110.251 1811.52 109.981L1812.2 109.567C1813.26 108.912 1814.24 108.108 1815.1 107.179L1815.15 107.124L1815.85 106.233C1816.01 106.023 1816.15 105.789 1816.25 105.539L1816.46 105.023C1816.67 104.529 1816.64 103.971 1816.38 103.514C1816.3 103.374 1816.21 103.248 1816.1 103.138L1815.55 102.602C1815.25 102.31 1814.85 102.153 1814.44 102.163C1814.16 102.17 1813.89 102.251 1813.65 102.398L1813.23 102.659C1812.95 102.829 1812.7 103.037 1812.48 103.277L1812.13 103.651C1811.69 104.126 1811.34 104.681 1811.09 105.286C1810.88 105.79 1810.75 106.322 1810.7 106.864Z" stroke="white" stroke-width="4"/>
<path d="M1822.1 116.877L1821.07 119.141C1821.05 119.186 1821.03 119.232 1821.02 119.279C1820.89 119.8 1821.32 120.259 1821.84 120.151L1822.57 119.999C1823.77 119.748 1824.95 119.324 1826.05 118.74L1826.12 118.703L1827.05 118.106C1827.28 117.957 1827.49 117.775 1827.67 117.567L1828.02 117.173C1828.38 116.761 1828.54 116.212 1828.46 115.684C1828.43 115.526 1828.39 115.372 1828.32 115.229L1827.98 114.501C1827.81 114.132 1827.5 113.852 1827.12 113.719C1826.86 113.627 1826.58 113.609 1826.3 113.667L1825.83 113.765C1825.52 113.83 1825.21 113.94 1824.93 114.091L1824.5 114.318C1823.92 114.623 1823.4 115.035 1822.97 115.53C1822.61 115.934 1822.32 116.389 1822.1 116.877Z" stroke="white" stroke-width="4"/>
<path d="M1789.8 118.609L1792.17 118.064C1792.22 118.053 1792.27 118.038 1792.31 118.018C1792.8 117.8 1792.91 117.147 1792.53 116.769L1792.04 116.281C1791.18 115.431 1790.2 114.717 1789.14 114.16L1789.07 114.122L1788.1 113.723C1787.85 113.618 1787.58 113.552 1787.3 113.527L1786.84 113.485C1786.3 113.437 1785.77 113.64 1785.39 114.038C1785.28 114.156 1785.18 114.288 1785.11 114.432L1784.7 115.19C1784.51 115.546 1784.46 115.963 1784.56 116.356C1784.63 116.639 1784.78 116.895 1784.98 117.098L1785.31 117.416C1785.53 117.637 1785.78 117.822 1786.06 117.967L1786.45 118.174C1787.02 118.473 1787.64 118.656 1788.28 118.713C1788.79 118.758 1789.3 118.723 1789.8 118.609Z" stroke="white" stroke-width="4"/>
<path d="M1767.98 166.045L1768.94 164.167C1768.96 164.129 1768.97 164.09 1768.99 164.05C1769.1 163.631 1768.73 163.263 1768.33 163.385L1767.33 163.684C1766.06 164.063 1764.84 164.582 1763.67 165.23L1763.63 165.253L1762.56 165.939C1762.39 166.052 1762.23 166.186 1762.09 166.338L1761.55 166.898C1761.26 167.204 1761.14 167.639 1761.24 168.041C1761.28 168.177 1761.33 168.306 1761.41 168.419L1761.68 168.803C1761.94 169.177 1762.34 169.421 1762.79 169.482C1763.02 169.513 1763.26 169.494 1763.49 169.425L1764.08 169.247C1764.41 169.15 1764.72 169.018 1765.02 168.852L1765.59 168.536C1766.11 168.249 1766.58 167.881 1766.99 167.448C1767.39 167.031 1767.72 166.558 1767.98 166.045Z" stroke="white" stroke-width="4"/>
<path d="M1783.89 128.677L1790.84 133.736C1791.62 134.303 1792.69 133.626 1792.57 132.642C1792.55 132.502 1792.56 132.36 1792.59 132.223L1794.77 123.097C1795.56 119.787 1797.83 117.051 1800.87 115.743C1802.12 115.205 1803.46 114.928 1804.8 114.927L1806.77 114.926C1809.52 114.924 1812.16 115.96 1814.2 117.838C1815.7 119.223 1816.78 121.025 1817.67 122.895C1818.7 125.056 1819.83 126.853 1819.73 127.301C1819.62 127.788 1819.03 131.338 1818.14 134.15C1817.65 135.722 1816.46 136.909 1815.06 137.706L1809.06 141.115C1805.85 142.936 1805.78 147.678 1808.93 149.517C1809.26 149.711 1809.57 149.948 1809.84 150.223L1817.53 157.868C1818.63 158.957 1819.85 159.899 1821.17 160.672L1824.63 162.689C1826.17 163.592 1827.99 163.892 1829.74 163.535C1831.29 163.222 1832.7 162.418 1833.8 161.235L1834.62 160.349C1835.46 159.437 1836.16 158.39 1836.68 157.251L1838.36 153.603C1840.13 149.748 1841.24 145.609 1841.63 141.375L1841.81 139.483C1842.09 136.492 1842.02 133.481 1841.59 130.519C1841.19 127.757 1840.51 125.044 1839.32 122.553C1837.55 118.863 1835.37 114.972 1835.02 114.446C1834.88 114.248 1834.33 113.498 1833.57 112.46C1829.31 106.604 1824.16 101.104 1818.06 97.3934L1817.41 97.0011C1816.33 96.3426 1815.19 95.7768 1814.02 95.3091C1808.17 92.9796 1801.64 93.1984 1795.88 95.9163L1794.03 96.7924C1790.26 98.5705 1786.92 101.2 1784.25 104.485L1780.7 108.848C1778.88 111.097 1777.85 113.923 1777.8 116.845C1777.75 120.029 1778.85 123.1 1780.9 125.442L1783.1 127.956C1783.34 128.226 1783.6 128.467 1783.89 128.677Z" stroke="white" stroke-width="4"/>
<path d="M1782.01 136.542L1785.2 141.088C1785.91 142.104 1785.3 143.513 1784.07 143.686L1778.5 144.878C1775.42 145.538 1772.94 147.818 1772.02 150.834C1771.68 151.968 1771.57 153.16 1771.7 154.338L1772.16 158.306C1772.32 159.751 1772.78 161.147 1773.5 162.408C1774.95 164.925 1777.35 166.759 1780.18 167.402C1782.57 167.943 1784.75 168.381 1785.11 168.277C1785.51 168.16 1788.21 167.564 1790.61 166.733C1792.58 166.053 1793.89 164.336 1794.52 162.348L1796.34 156.531C1797.11 154.073 1799.97 152.969 1802.19 154.267C1802.36 154.365 1802.52 154.474 1802.67 154.594L1811.83 161.892C1813.69 163.371 1815.3 165.137 1816.6 167.123L1819.45 171.475C1820.34 172.833 1820.75 174.45 1820.61 176.067C1820.48 177.652 1819.83 179.149 1818.76 180.328L1817.95 181.221C1817.28 181.954 1816.52 182.592 1815.68 183.118L1813.29 184.623C1808.68 187.52 1803.39 189.167 1797.94 189.401L1794.88 189.533C1788.61 190.56 1782.18 190.109 1776.16 188.064C1773.99 187.326 1772.3 186.722 1771.98 186.54C1766.81 183.52 1761.4 180.864 1757.8 176.073L1755.73 173.316C1753.88 170.845 1752.44 168.087 1751.48 165.152C1749.68 159.684 1749.6 153.799 1751.23 148.28L1752.19 145.056C1753.24 141.508 1755.28 138.335 1758.07 135.908L1761.48 132.946C1764.47 130.352 1768.59 129.498 1772.36 130.692C1773.16 130.946 1773.93 131.288 1774.66 131.712L1780.42 135.074C1781.05 135.443 1781.59 135.944 1782.01 136.542Z" stroke="white" stroke-width="4"/>
<path d="M1497.22 492.746C1492.2 496.769 1515.97 493.4 1518.56 498.427C1520.05 500.606 1522.88 515.093 1511.17 519.343C1501.51 522.847 1482.64 517.345 1478.05 516.194C1459.64 511.573 1455.33 488.242 1455.18 479.586C1455.03 470.93 1462.35 453.54 1468.46 448.483C1474.57 443.426 1480.24 438.369 1493.33 449.068C1501.46 455.716 1485.23 473.174 1488.16 473.926C1492.57 475.054 1550.87 449.761 1497.22 492.746Z" stroke="#183851" stroke-width="6"/>
<path d="M1868.72 649.198C1875.64 652.828 1860.68 627.914 1865.18 622.545C1866.95 619.809 1882.08 609.501 1892.39 620.503C1900.89 629.573 1903.49 653.381 1904.33 659.075C1907.71 681.935 1883.23 698.251 1873.48 702.683C1863.72 707.115 1840.54 707.499 1831.93 703.159C1823.33 698.818 1814.93 694.969 1820.95 675.067C1824.69 662.7 1852.12 672.251 1851.6 668.6C1850.81 663.12 1794.78 610.407 1868.72 649.198Z" stroke="#183851" stroke-width="6"/>
<path d="M530.417 -52.9587C532.623 -39.4417 536.198 -29.3298 533.309 -16.712C530.974 -5.52389 526.437 5.0883 519.964 14.5076L519.259 15.533L512.035 24.637C509.555 27.7618 506.092 29.9564 502.207 30.8644L496.988 32.0843C488.137 34.1533 483.74 44.1314 488.186 52.0599C489.442 54.2997 490.041 56.8483 489.914 59.4131L489.664 64.4707C489.553 66.7316 489.195 68.9737 488.599 71.1575L488.246 72.4517C487.329 75.8093 486.014 79.0448 484.327 82.0892L482.345 85.6662L479.755 89.3297C478.113 91.6533 476.305 93.8558 474.346 95.9201C470.025 100.474 465.009 104.314 459.484 107.296L458.069 108.06L447.742 113.25C442.792 115.737 437.582 117.668 432.206 119.007L430.61 119.405C424.171 121.009 417.523 121.608 410.901 121.181C406.231 120.88 401.609 120.07 397.115 118.767L383.353 114.777L379.916 113.395C371.589 110.049 363.684 105.736 356.364 100.545L355.038 99.6039C350.821 96.6128 346.822 93.249 343.148 89.6107C339.078 85.5796 335.349 81.1476 332.082 76.4419C327.997 70.5594 324.601 64.2279 321.959 57.5715L319.971 52.5619L317.374 46.0178C315.496 41.2865 314.125 36.3697 313.282 31.3497C312.203 24.9217 312.001 18.3771 312.68 11.8947L315.12 -11.3915C319.705 -33.6615 329.218 -56.2474 332.311 -59.5975C335.403 -62.9477 347.734 -84.401 370.169 -99.4977L371.469 -100.168C379.757 -104.442 388.461 -107.855 397.445 -110.352C408.421 -114.301 419.987 -116.356 431.651 -116.429L433.719 -116.442L435.531 -116.293C446.234 -115.414 456.743 -112.931 466.707 -108.926L480.799 -103.263L484.679 -101.117C492.181 -96.9667 499.141 -91.9062 505.403 -86.0502C509.158 -82.538 513.32 -79.4523 516.929 -75.7908C525.21 -67.3913 529.861 -56.3673 530.417 -52.9587Z" stroke="white" stroke-width="7"/>
<path d="M364.995 34.01L369.267 32.1664C369.351 32.1304 369.431 32.0862 369.506 32.0346C370.343 31.4594 370.333 30.1983 369.488 29.6231L368.398 28.8819C366.499 27.5911 364.426 26.5927 362.245 25.9193L362.096 25.8731L360.15 25.4621C359.634 25.3532 359.107 25.3229 358.584 25.372L357.697 25.4553C356.67 25.5518 355.743 26.1149 355.175 26.9885C355.007 27.2469 354.873 27.5273 354.778 27.8224L354.275 29.3832C354.04 30.1131 354.089 30.9092 354.411 31.6084C354.642 32.1119 355.005 32.5416 355.459 32.8505L356.168 33.3321C356.661 33.6678 357.2 33.9274 357.768 34.1025L358.576 34.3522C359.748 34.7142 360.977 34.8416 362.193 34.7274C363.159 34.6366 364.104 34.3947 364.995 34.01Z" stroke="white" stroke-width="7"/>
<path d="M369.245 7.94672L373.761 8.24781C373.849 8.25374 373.939 8.25057 374.028 8.23835C375.005 8.10387 375.559 6.97503 375.081 6.09145L374.412 4.85423C373.299 2.79785 371.906 0.926083 370.274 -0.703883L370.17 -0.808258L368.614 -2.10453C368.223 -2.42983 367.788 -2.69264 367.321 -2.88465L366.449 -3.24355C365.529 -3.62224 364.482 -3.53446 363.611 -3.00542C363.349 -2.84675 363.109 -2.65169 362.897 -2.42576L361.817 -1.27487C361.275 -0.697621 360.962 0.0698796 360.944 0.867945C360.931 1.42143 361.06 1.96476 361.318 2.44151L361.746 3.23427C362.035 3.76781 362.397 4.25345 362.82 4.67636L363.45 5.30572C364.306 6.16122 365.315 6.83475 366.422 7.2904C367.321 7.66056 368.274 7.88195 369.245 7.94672Z" stroke="white" stroke-width="7"/>
<path d="M467.402 -6.38372L462.97 -7.18019C462.882 -7.19591 462.793 -7.20262 462.704 -7.20021C461.724 -7.17377 461.055 -6.1158 461.434 -5.1915L461.977 -3.86487C462.869 -1.68956 464.057 0.332601 465.508 2.14106L465.599 2.25445L467.014 3.72641C467.364 4.08981 467.764 4.39673 468.202 4.63757L469.046 5.10097C469.912 5.5765 470.954 5.60239 471.871 5.17114C472.147 5.04123 472.405 4.87258 472.639 4.67005L473.815 3.65078C474.417 3.12822 474.81 2.39079 474.911 1.59263C474.98 1.04537 474.909 0.493855 474.704 -0.00562972L474.357 -0.852288C474.126 -1.4163 473.818 -1.94061 473.442 -2.40951L472.875 -3.11606C472.119 -4.05847 471.193 -4.83775 470.146 -5.41285C469.29 -5.88325 468.364 -6.21074 467.402 -6.38372Z" stroke="white" stroke-width="7"/>
<path d="M423.05 64.8706L419.497 62.1587C419.426 62.1048 419.35 62.0583 419.27 62.0199C418.398 61.6035 417.357 62.2351 417.305 63.2112L417.224 64.7438C417.097 67.1392 417.299 69.5301 417.823 71.8501L417.853 71.9844L418.496 74.0052C418.646 74.4744 418.862 74.9179 419.138 75.3223L419.73 76.1876C420.278 76.9893 421.182 77.4734 422.168 77.4936C422.47 77.4997 422.773 77.4622 423.067 77.382L424.478 76.9971C425.265 76.7825 425.948 76.2728 426.38 75.5762C426.664 75.1185 426.828 74.5996 426.856 74.069L426.907 73.1044C426.94 72.4848 426.887 71.8664 426.752 71.2664L426.538 70.3213C426.272 69.1439 425.789 68.0326 425.113 67.0434C424.545 66.2136 423.85 65.4806 423.05 64.8706Z" stroke="white" stroke-width="7"/>
<path d="M401.532 71.3294L401.282 66.6797C401.277 66.5874 401.264 66.4961 401.241 66.4069C400.998 65.4369 399.878 65.0571 399.123 65.6889L397.971 66.6536C396.143 68.1838 394.525 69.9685 393.162 71.9568L393.081 72.0749L392.015 73.9454C391.762 74.3883 391.572 74.8661 391.449 75.3641L391.194 76.3947C390.95 77.3806 391.162 78.4244 391.767 79.2144C391.951 79.4551 392.168 79.6666 392.41 79.8426L393.591 80.7005C394.233 81.1661 395.024 81.3516 395.8 81.2178C396.316 81.1286 396.803 80.9016 397.212 80.5588L397.94 79.949C398.413 79.5529 398.832 79.091 399.185 78.5763L399.733 77.7767C400.431 76.7592 400.942 75.6169 401.241 74.4082C401.49 73.4023 401.588 72.3637 401.532 71.3294Z" stroke="white" stroke-width="7"/>
<path d="M377.297 55.6362L378.607 51.0884C378.633 50.9987 378.65 50.907 378.659 50.8145C378.754 49.7985 377.814 49.0542 376.873 49.3999L375.543 49.8885C373.344 50.6964 371.256 51.8199 369.342 53.2248L369.22 53.314L367.637 54.6968C367.242 55.0417 366.895 55.4421 366.609 55.8854L366.067 56.7232C365.501 57.5979 365.347 58.6766 365.649 59.6478C365.74 59.9396 365.87 60.2154 366.036 60.4672L366.876 61.7444C367.301 62.3904 367.959 62.8322 368.711 62.9777C369.23 63.0782 369.772 63.0328 370.28 62.8462L371.131 62.5336C371.701 62.324 372.243 62.0326 372.74 61.6682L373.482 61.1233C374.484 60.3879 375.349 59.4686 376.031 58.4141C376.587 57.5553 377.014 56.6182 377.297 55.6362Z" stroke="white" stroke-width="7"/>
<path d="M437.638 43.4129L433.313 45.1004C433.228 45.1335 433.147 45.1747 433.07 45.2237C432.215 45.7684 432.181 47.03 433.004 47.6356L434.069 48.4189C435.92 49.7801 437.955 50.8552 440.109 51.6091L440.257 51.6606L442.186 52.1436C442.696 52.2712 443.221 52.3208 443.744 52.2909L444.634 52.2399C445.662 52.1811 446.605 51.6516 447.202 50.7985C447.379 50.546 447.522 50.2701 447.627 49.9783L448.181 48.437C448.441 47.7141 448.42 46.9147 448.122 46.2027C447.908 45.691 447.561 45.2482 447.119 44.9229L446.427 44.4143C445.946 44.0603 445.417 43.7808 444.857 43.5848L444.057 43.3047C442.9 42.8999 441.679 42.7276 440.462 42.7973C439.494 42.8527 438.542 43.0603 437.638 43.4129Z" stroke="white" stroke-width="7"/>
<path d="M445.969 22.8174L431.47 15.2198C429.844 14.3683 428.019 15.9408 428.521 17.7597C428.593 18.0177 428.617 18.2874 428.594 18.555L427.029 36.3417C426.462 42.7934 422.947 48.5757 417.583 51.8836C415.38 53.2422 412.941 54.1346 410.406 54.5095L406.697 55.0584C401.527 55.8233 396.27 54.6062 391.908 51.6345C388.695 49.4451 386.161 46.3505 383.961 43.0768C381.419 39.2949 378.791 36.2233 378.861 35.3517C378.938 34.403 379.056 27.557 379.951 22.0156C380.451 18.9167 382.348 16.3527 384.767 14.4646L395.125 6.37958C400.659 2.06019 399.482 -6.8884 393.039 -9.47756C392.358 -9.75139 391.712 -10.1124 391.117 -10.5523L374.523 -22.8162C372.159 -24.5636 369.593 -25.9977 366.887 -27.0855L359.821 -29.925C356.659 -31.1957 353.163 -31.2575 349.956 -30.0994C347.137 -29.0811 344.691 -27.1738 342.961 -24.6438L341.664 -22.7475C340.329 -20.7954 339.307 -18.6321 338.637 -16.3416L336.492 -9.00682C334.225 -1.25622 333.285 6.845 333.714 14.9274L333.906 18.5397C334.209 24.2495 335.183 29.8977 336.806 35.3586C338.319 40.449 340.353 45.3683 343.296 49.7276C347.654 56.1835 352.838 62.907 353.646 63.7988C353.951 64.1344 355.203 65.3938 356.913 67.1393C366.558 76.9845 377.785 85.9099 390.312 91.2034L391.636 91.7631C393.859 92.7024 396.152 93.4532 398.492 94.0081C410.147 96.7724 422.393 94.547 432.475 87.8325L435.724 85.6683C442.32 81.2756 447.882 75.3977 451.999 68.4708L457.467 59.2709C460.285 54.5295 461.434 48.9218 460.717 43.406C459.937 37.3967 456.998 31.9218 452.49 28.08L447.651 23.9555C447.132 23.5131 446.568 23.1315 445.969 22.8174Z" stroke="white" stroke-width="7"/>
<path d="M447.318 7.48595L440.062 -0.190818C438.441 -1.90649 439.203 -4.72973 441.468 -5.39575L451.618 -9.1845C457.238 -11.2823 461.276 -16.2646 462.166 -22.1969C462.501 -24.4281 462.374 -26.7043 461.795 -28.8847L459.841 -36.2311C459.13 -38.9061 457.879 -41.4073 456.166 -43.5809C452.746 -47.9186 447.708 -50.7055 442.2 -51.1302C437.565 -51.4876 433.332 -51.7082 432.682 -51.411C431.955 -51.079 427.052 -49.2104 422.756 -46.9793C419.236 -45.1515 417.239 -41.5548 416.615 -37.638L414.79 -26.1763C414.019 -21.3348 408.951 -18.4637 404.402 -20.2918C404.061 -20.4287 403.731 -20.5899 403.414 -20.7743L384.134 -31.9739C380.227 -34.2436 376.707 -37.1219 373.706 -40.5004L367.129 -47.9052C365.077 -50.2152 363.859 -53.1465 363.669 -56.2304C363.483 -59.2524 364.295 -62.2517 365.98 -64.7672L367.258 -66.675C368.306 -68.2384 369.562 -69.6511 370.993 -70.8735L375.088 -74.3722C382.971 -81.1077 392.471 -85.6758 402.655 -87.6275L408.396 -88.728C419.912 -92.4006 432.152 -93.3363 444.04 -91.1532C448.33 -90.3654 451.694 -89.699 452.33 -89.4433C462.911 -85.1911 473.834 -81.6917 481.937 -73.6676L486.598 -69.051C490.777 -64.9128 494.25 -60.1185 496.88 -54.8581C501.778 -45.0603 503.573 -34.0024 502.027 -23.1582L501.124 -16.8209C500.13 -9.84952 497.165 -3.30714 492.578 2.03626L486.979 8.55986C482.074 14.274 474.55 17.0253 467.116 15.823C465.536 15.5675 463.99 15.1374 462.505 14.5406L450.728 9.80764C449.437 9.28893 448.274 8.49689 447.318 7.48595Z" stroke="white" stroke-width="7"/>
<path d="M853.603 891.802C863.758 891.596 871.556 890.029 880.518 893.469C888.489 896.354 895.806 900.794 902.045 906.532L902.724 907.157L908.653 913.413C910.687 915.56 911.937 918.333 912.197 921.28L912.547 925.239C913.14 931.954 920.007 936.226 926.293 933.79C928.069 933.102 930.002 932.929 931.872 933.29L935.559 934.003C937.208 934.321 938.817 934.818 940.358 935.484L941.271 935.879C943.64 936.903 945.878 938.207 947.937 939.764L950.356 941.593L952.775 943.878C954.309 945.327 955.737 946.884 957.048 948.538C959.94 952.187 962.235 956.272 963.846 960.64L964.259 961.759L966.99 969.883C968.298 973.778 969.171 977.805 969.592 981.892L969.717 983.106C970.222 988.001 969.966 992.945 968.96 997.762C968.251 1001.16 967.173 1004.47 965.747 1007.63L961.377 1017.32L960.004 1019.7C956.676 1025.46 952.683 1030.81 948.106 1035.65L947.277 1036.52C944.639 1039.3 941.752 1041.89 938.696 1044.21C935.311 1046.77 931.667 1049.05 927.87 1050.95C923.124 1053.34 918.12 1055.17 912.957 1056.41L909.071 1057.35L903.995 1058.57C900.325 1059.45 896.571 1059.95 892.797 1060.04C887.965 1060.16 883.139 1059.62 878.45 1058.45L861.609 1054.22C845.737 1048.53 830.149 1039.18 828.013 1036.56C825.877 1033.94 811.415 1022.64 802.677 1004.59L802.32 1003.57C800.049 997.035 798.454 990.287 797.56 983.43C795.808 974.958 795.509 966.251 796.675 957.68L796.881 956.16L797.18 954.845C798.945 947.08 801.867 939.623 805.849 932.726L811.481 922.972L813.463 920.348C817.294 915.274 821.737 910.692 826.692 906.708C829.663 904.318 832.364 901.585 835.429 899.318C842.462 894.116 851.043 891.854 853.603 891.802Z" stroke="#183851" stroke-width="5"/>
<path d="M864.337 936.176L865.72 939.473C865.748 939.539 865.782 939.601 865.823 939.66C866.255 940.288 867.195 940.25 867.576 939.59L868.257 938.411C869.254 936.684 870.024 934.836 870.549 932.913L870.576 932.814L870.911 931.035C870.982 930.659 871.001 930.275 870.967 929.893L870.883 928.941C870.816 928.18 870.382 927.5 869.721 927.118C869.513 926.998 869.288 926.911 869.053 926.859L868.014 926.63C867.351 926.484 866.657 926.605 866.082 926.968C865.729 927.191 865.434 927.497 865.225 927.859L864.804 928.588C864.547 929.033 864.349 929.509 864.214 930.005L863.987 930.835C863.731 931.774 863.644 932.751 863.729 933.721C863.804 934.565 864.009 935.394 864.337 936.176Z" stroke="#183851" stroke-width="5"/>
<path d="M836.163 957.071L839.591 956.984C839.66 956.982 839.727 956.974 839.793 956.959C840.512 956.799 840.814 955.976 840.365 955.406L839.664 954.518C838.563 953.124 837.272 951.88 835.825 950.822L835.741 950.76L834.373 949.923C834.053 949.727 833.707 949.577 833.344 949.475L832.576 949.26C831.857 949.059 831.086 949.195 830.494 949.628C830.313 949.761 830.153 949.918 830.019 950.095L829.373 950.948C829.016 951.421 828.864 952.011 828.951 952.593C829.008 952.977 829.167 953.342 829.411 953.652L829.853 954.211C830.138 954.572 830.472 954.894 830.846 955.168L831.433 955.597C832.169 956.136 833 956.539 833.885 956.787C834.626 956.994 835.394 957.09 836.163 957.071Z" stroke="#183851" stroke-width="5"/>
<path d="M837.734 977.05L839.706 974.386C839.745 974.333 839.779 974.277 839.806 974.217C840.106 973.564 839.624 972.79 838.895 972.753L837.779 972.697C836.013 972.607 834.252 972.762 832.548 973.158L832.447 973.182L830.97 973.664C830.621 973.777 830.292 973.941 829.994 974.151L829.373 974.585C828.782 975 828.431 975.677 828.425 976.414C828.424 976.638 828.454 976.864 828.516 977.082L828.816 978.146C828.979 978.726 829.358 979.229 829.873 979.548C830.216 979.76 830.603 979.882 830.999 979.902L831.704 979.938C832.161 979.961 832.617 979.921 833.058 979.819L833.744 979.659C834.615 979.457 835.434 979.092 836.16 978.584C836.764 978.161 837.295 977.643 837.734 977.05Z" stroke="#183851" stroke-width="5"/>
<path d="M849.268 988.721L849.183 985.322C849.181 985.255 849.173 985.189 849.158 985.123C848.993 984.4 848.119 984.06 847.491 984.476L846.653 985.03C845.223 985.977 843.946 987.122 842.865 988.429L842.793 988.516L841.956 989.74C841.739 990.057 841.572 990.404 841.461 990.769L841.265 991.414C841.047 992.133 841.18 992.913 841.627 993.535C841.761 993.72 841.919 993.887 842.098 994.031L843.031 994.785C843.48 995.148 844.054 995.332 844.635 995.301C845.046 995.279 845.442 995.149 845.78 994.926L846.321 994.567C846.693 994.321 847.025 994.024 847.306 993.684L847.714 993.191C848.289 992.495 848.719 991.698 848.979 990.841C849.188 990.154 849.285 989.439 849.268 988.721Z" stroke="#183851" stroke-width="5"/>
<path d="M881.466 1016.5L882.16 1013.22C882.173 1013.16 882.18 1013.09 882.181 1013.02C882.184 1012.29 881.413 1011.77 880.714 1012.03L879.736 1012.39C878.11 1012.99 876.59 1013.82 875.223 1014.84L875.135 1014.91L874.021 1015.92C873.741 1016.17 873.502 1016.46 873.313 1016.79L872.958 1017.39C872.584 1018.02 872.539 1018.8 872.836 1019.5C872.925 1019.71 873.043 1019.9 873.187 1020.08L873.919 1020.99C874.286 1021.45 874.817 1021.76 875.401 1021.86C875.806 1021.93 876.218 1021.89 876.595 1021.75L877.222 1021.52C877.644 1021.36 878.038 1021.15 878.393 1020.88L878.921 1020.48C879.639 1019.94 880.239 1019.27 880.689 1018.51C881.055 1017.89 881.317 1017.21 881.466 1016.5Z" stroke="#183851" stroke-width="5"/>
<path d="M881.21 942.939L880.162 946.11C880.141 946.172 880.127 946.237 880.119 946.303C880.036 947.025 880.743 947.627 881.461 947.446L882.492 947.185C884.182 946.758 885.791 946.097 887.271 945.221L887.364 945.166L888.592 944.281C888.896 944.062 889.163 943.8 889.385 943.504L889.814 942.933C890.254 942.347 890.382 941.584 890.161 940.866C890.094 940.65 889.998 940.443 889.873 940.25L889.248 939.28C888.927 938.783 888.427 938.417 887.851 938.26C887.457 938.152 887.044 938.147 886.656 938.245L885.998 938.411C885.56 938.521 885.143 938.693 884.759 938.92L884.181 939.262C883.41 939.719 882.741 940.317 882.21 941.026C881.775 941.605 881.437 942.251 881.21 942.939Z" stroke="#183851" stroke-width="5"/>
<path d="M928.888 982.953L926.525 985.279C926.478 985.325 926.436 985.376 926.399 985.431C926.002 986.027 926.357 986.858 927.068 986.998L928.185 987.217C929.931 987.561 931.707 987.663 933.465 987.521L933.567 987.513L935.118 987.252C935.478 987.191 935.826 987.079 936.152 986.918L936.849 986.575C937.495 986.256 937.945 985.643 938.063 984.921C938.099 984.7 938.103 984.473 938.075 984.249L937.94 983.173C937.865 982.572 937.562 982.018 937.096 981.628C936.79 981.372 936.426 981.197 936.039 981.121L935.336 980.983C934.885 980.894 934.425 980.868 933.971 980.904L933.254 980.962C932.362 981.034 931.496 981.273 930.699 981.666C930.03 981.996 929.419 982.43 928.888 982.953Z" stroke="#183851" stroke-width="5"/>
<path d="M931.379 999.427L927.939 999.125C927.871 999.119 927.802 999.119 927.734 999.126C926.997 999.203 926.601 999.986 926.986 1000.61L927.574 1001.55C928.506 1003.06 929.647 1004.43 930.964 1005.64L931.043 1005.71L932.304 1006.69C932.603 1006.92 932.934 1007.11 933.287 1007.25L934.017 1007.55C934.715 1007.83 935.504 1007.78 936.147 1007.42C936.343 1007.31 936.521 1007.17 936.676 1007.02L937.429 1006.24C937.838 1005.82 938.057 1005.25 938.04 1004.67C938.028 1004.28 937.912 1003.9 937.703 1003.56L937.332 1002.97C937.091 1002.58 936.795 1002.22 936.454 1001.91L935.925 1001.42C935.25 1000.8 934.465 1000.31 933.609 999.963C932.896 999.675 932.144 999.495 931.379 999.427Z" stroke="#183851" stroke-width="5"/>
<path d="M917.323 1015.58L914.121 1014.14C914.058 1014.11 913.992 1014.09 913.925 1014.08C913.189 1013.9 912.545 1014.51 912.7 1015.24L912.92 1016.27C913.283 1017.97 913.889 1019.62 914.721 1021.17L914.774 1021.27L915.623 1022.57C915.835 1022.9 916.093 1023.2 916.388 1023.45L916.947 1023.94C917.53 1024.45 918.306 1024.67 919.05 1024.55C919.274 1024.52 919.49 1024.45 919.693 1024.35L920.718 1023.87C921.237 1023.63 921.63 1023.19 921.816 1022.65C921.944 1022.28 921.967 1021.88 921.883 1021.49L921.742 1020.83C921.648 1020.39 921.491 1019.96 921.275 1019.56L920.953 1018.95C920.518 1018.14 919.933 1017.41 919.23 1016.8C918.658 1016.3 918.015 1015.89 917.323 1015.58Z" stroke="#183851" stroke-width="5"/>
<path d="M914.659 969.999L915.445 973.351C915.461 973.417 915.482 973.481 915.51 973.542C915.821 974.227 916.743 974.384 917.274 973.843L917.961 973.143C919.154 971.926 920.156 970.544 920.935 969.042L920.988 968.939L921.544 967.573C921.691 967.212 921.783 966.832 921.815 966.445L921.871 965.785C921.935 965.025 921.645 964.277 921.081 963.749C920.914 963.593 920.727 963.459 920.523 963.352L919.45 962.784C918.946 962.517 918.357 962.449 917.803 962.593C917.405 962.697 917.044 962.905 916.759 963.196L916.313 963.65C916.003 963.967 915.742 964.326 915.54 964.717L915.25 965.275C914.832 966.082 914.578 966.96 914.502 967.861C914.441 968.577 914.494 969.299 914.659 969.999Z" stroke="#183851" stroke-width="5"/>
<path d="M847.553 939.531L850.211 940.87C850.264 940.896 850.319 940.917 850.376 940.932C850.968 941.087 851.484 940.57 851.309 939.997L850.881 938.594C850.337 936.81 849.597 935.08 848.674 933.436L848.641 933.376L847.665 931.883C847.505 931.637 847.315 931.411 847.1 931.208L846.305 930.461C845.871 930.052 845.256 929.888 844.69 930.03C844.497 930.078 844.316 930.16 844.157 930.272L843.616 930.651C843.091 931.019 842.749 931.584 842.666 932.219C842.624 932.549 842.653 932.887 842.752 933.212L843.006 934.047C843.146 934.503 843.335 934.945 843.571 935.365L844.02 936.167C844.429 936.896 844.951 937.562 845.566 938.141C846.157 938.696 846.827 939.165 847.553 939.531Z" stroke="#183851" stroke-width="5"/>
<path d="M900.408 961.729L893.313 971.58C892.518 972.684 893.482 974.189 894.87 974.01C895.067 973.985 895.267 973.995 895.461 974.04L908.357 977.049C913.035 978.14 916.912 981.325 918.78 985.61C919.547 987.369 919.947 989.253 919.958 991.153L919.973 993.934C919.994 997.81 918.55 1001.54 915.912 1004.43C913.969 1006.56 911.432 1008.1 908.798 1009.37C905.756 1010.85 903.226 1012.45 902.593 1012.31C901.905 1012.16 896.891 1011.35 892.916 1010.12C890.693 1009.42 889.009 1007.76 887.875 1005.79L883.022 997.34C880.43 992.825 873.736 992.754 871.162 997.213C870.889 997.685 870.557 998.121 870.172 998.512L859.432 1009.41C857.902 1010.97 856.581 1012.7 855.499 1014.57L852.675 1019.46C851.412 1021.65 851.001 1024.21 851.516 1026.69C851.969 1028.87 853.113 1030.86 854.79 1032.4L856.047 1033.55C857.34 1034.73 858.822 1035.71 860.433 1036.44L865.594 1038.78C871.048 1041.25 876.897 1042.79 882.876 1043.32L885.549 1043.56C889.773 1043.93 894.021 1043.81 898.201 1043.19C902.096 1042.61 905.921 1041.63 909.429 1039.93C914.625 1037.4 920.103 1034.3 920.842 1033.8C921.121 1033.61 922.176 1032.82 923.637 1031.75C931.874 1025.7 939.601 1018.39 944.797 1009.74L945.347 1008.83C946.269 1007.3 947.06 1005.69 947.712 1004.03C950.96 995.763 950.607 986.539 946.731 978.435L945.482 975.823C942.947 970.521 939.213 965.822 934.558 962.075L928.375 957.099C925.188 954.534 921.191 953.104 917.066 953.054C912.573 952.998 908.246 954.584 904.954 957.491L901.419 960.613C901.04 960.948 900.701 961.322 900.408 961.729Z" stroke="#183851" stroke-width="5"/>
<path d="M889.293 959.135L882.898 963.659C881.469 964.671 879.475 963.816 879.223 962.083L877.503 954.235C876.55 949.889 873.315 946.403 869.052 945.13C867.449 944.651 865.765 944.505 864.103 944.703L858.505 945.369C856.467 945.611 854.499 946.268 852.724 947.299C849.182 949.356 846.609 952.764 845.721 956.763C844.974 960.129 844.369 963.214 844.52 963.722C844.688 964.291 845.547 968.085 846.736 971.473C847.709 974.249 850.141 976.091 852.952 976.959L861.176 979.497C864.65 980.569 866.228 984.591 864.41 987.74C864.274 987.975 864.121 988.201 863.953 988.415L853.714 1001.4C851.639 1004.03 849.157 1006.31 846.363 1008.16L840.239 1012.22C838.328 1013.48 836.049 1014.07 833.765 1013.89C831.526 1013.71 829.409 1012.8 827.738 1011.3L826.471 1010.16C825.433 1009.23 824.527 1008.16 823.779 1006.98L821.639 1003.61C817.518 997.115 815.157 989.662 814.789 981.981L814.582 977.651C813.089 968.812 813.682 959.727 816.528 951.227C817.555 948.16 818.397 945.759 818.651 945.319C822.879 937.995 826.591 930.342 833.329 925.232L837.206 922.292C840.682 919.656 844.565 917.608 848.702 916.227C856.408 913.656 864.714 913.494 872.515 915.763L877.073 917.089C882.088 918.548 886.581 921.409 890.025 925.335L894.229 930.128C897.911 934.327 899.144 940.139 897.484 945.471C897.131 946.604 896.654 947.695 896.061 948.723L891.354 956.874C890.838 957.768 890.135 958.539 889.293 959.135Z" stroke="#183851" stroke-width="5"/>
<path d="M-3.00517 839.932C9.78604 835.037 18.9658 829.491 31.907 829.767C43.3363 829.791 54.6467 832.086 65.1808 836.52L66.3275 837.003L76.7048 842.236C80.2666 844.033 83.1165 846.981 84.7915 850.601L87.042 855.465C90.8589 863.715 101.52 866.003 108.385 860.044C110.325 858.361 112.699 857.259 115.237 856.864L120.24 856.086C122.477 855.738 124.745 855.634 127.004 855.777L128.343 855.861C131.817 856.079 135.252 856.713 138.574 857.749L142.478 858.966L146.59 860.761C149.198 861.9 151.721 863.225 154.138 864.725C159.473 868.036 164.248 872.172 168.286 876.979L169.32 878.21L176.491 887.273C179.929 891.618 182.874 896.33 185.273 901.324L185.986 902.807C188.859 908.788 190.791 915.177 191.712 921.749C192.362 926.383 192.504 931.073 192.137 935.738L191.013 950.023L190.355 953.668C188.763 962.5 186.138 971.113 182.535 979.332L181.882 980.821C179.806 985.557 177.32 990.153 174.501 994.487C171.376 999.289 167.79 1003.84 163.843 1007.99C158.908 1013.18 153.395 1017.79 147.41 1021.72L142.906 1024.68L137.023 1028.55C132.769 1031.34 128.232 1033.68 123.486 1035.52C117.409 1037.88 111.041 1039.4 104.555 1040.05L81.2567 1042.37C58.5196 1042.38 34.4762 1037.64 30.5698 1035.29C26.6633 1032.93 3.15897 1025.2 -16.164 1006.28L-17.0837 1005.14C-22.9461 997.892 -28.0489 990.058 -32.3119 981.765C-38.3993 971.815 -42.7517 960.903 -45.1834 949.495L-45.6144 947.473L-45.8352 945.668C-47.1391 935.009 -46.8331 924.215 -44.9272 913.647L-42.2319 898.701L-40.9147 894.466C-38.3681 886.28 -34.8204 878.44 -30.3521 871.123C-27.6722 866.735 -25.4922 862.035 -22.6366 857.76C-16.086 847.951 -6.23077 841.166 -3.00517 839.932Z" stroke="#183851" stroke-width="7"/>
<path d="M30.8599 891.338L34.119 894.891C34.1842 894.962 34.2565 895.026 34.3348 895.082C35.1703 895.681 36.3448 895.205 36.5273 894.193L36.8531 892.387C37.3303 889.741 37.4646 887.044 37.2529 884.364L37.2421 884.226L36.8559 881.817C36.7741 881.307 36.6227 880.811 36.4058 880.342L35.8644 879.172C35.4321 878.237 34.5715 877.572 33.5583 877.389C33.2398 877.332 32.9144 877.324 32.5935 877.365L31.1698 877.549C30.2618 877.666 29.4367 878.137 28.8733 878.858C28.5261 879.303 28.2924 879.826 28.1923 880.381L27.9909 881.498C27.8679 882.179 27.8333 882.874 27.8879 883.565L27.9791 884.721C28.0825 886.029 28.4176 887.309 28.9688 888.501C29.4489 889.538 30.0868 890.496 30.8599 891.338Z" stroke="#183851" stroke-width="7"/>
<path d="M4.64491 930.706L8.95549 929.032C9.04109 928.998 9.12317 928.957 9.20049 928.908C10.0391 928.377 10.0476 927.195 9.21657 926.677L7.92177 925.87C5.88982 924.603 3.68374 923.614 1.36517 922.931L1.22999 922.891L-0.888302 922.453C-1.38284 922.351 -1.89096 922.317 -2.39734 922.354L-3.47084 922.431C-4.47424 922.504 -5.39068 923.029 -5.94406 923.849C-6.11327 924.099 -6.24452 924.372 -6.33374 924.657L-6.76384 926.035C-7.0019 926.797 -6.92485 927.615 -6.54905 928.315C-6.30121 928.776 -5.93389 929.166 -5.48239 929.448L-4.66651 929.957C-4.14085 930.284 -3.57015 930.54 -2.97034 930.717L-2.02919 930.994C-0.849802 931.342 0.389112 931.474 1.625 931.385C2.65955 931.31 3.67826 931.081 4.64491 930.706Z" stroke="#183851" stroke-width="7"/>
<path d="M15.7527 955.34L17.0393 951.061C17.0648 950.976 17.0815 950.888 17.0891 950.8C17.1717 949.835 16.2069 949.073 15.2658 949.358L13.824 949.796C11.5413 950.488 9.37846 951.489 7.3969 952.768L7.2796 952.844L5.62503 954.13C5.23424 954.433 4.89196 954.791 4.60858 955.193L4.01967 956.028C3.45857 956.823 3.32201 957.842 3.65083 958.78C3.75105 959.066 3.89234 959.338 4.07037 959.587L4.93648 960.801C5.40819 961.462 6.11885 961.926 6.91813 962.097C7.44953 962.21 7.99723 962.188 8.50792 962.033L9.41875 961.756C10.0096 961.577 10.5693 961.318 11.0822 960.987L11.8804 960.472C12.8934 959.818 13.7663 958.981 14.4548 958.005C15.0283 957.192 15.4661 956.293 15.7527 955.34Z" stroke="#183851" stroke-width="7"/>
<path d="M35.7126 964.887L34.0543 960.613C34.0217 960.529 33.9808 960.448 33.9321 960.372C33.3924 959.529 32.1292 959.497 31.522 960.311L30.7116 961.397C29.3282 963.251 28.2311 965.286 27.4551 967.438L27.4034 967.582L26.8998 969.517C26.7694 970.018 26.7162 970.533 26.7419 971.047L26.7873 971.956C26.8379 972.967 27.3629 973.896 28.2145 974.481C28.4679 974.655 28.7449 974.795 29.0382 974.896L30.566 975.427C31.3014 975.682 32.114 975.655 32.8364 975.35C33.3484 975.134 33.7916 974.789 34.1183 974.351L34.6417 973.65C35.0011 973.168 35.2861 972.639 35.4877 972.08L35.7804 971.268C36.1934 970.123 36.3746 968.914 36.3143 967.709C36.266 966.742 36.063 965.79 35.7126 964.887Z" stroke="#183851" stroke-width="7"/>
<path d="M115.63 984.34L112.96 980.529C112.908 980.454 112.848 980.385 112.782 980.322C112.05 979.618 110.817 979.883 110.425 980.828L109.919 982.045C109.039 984.165 108.481 986.398 108.262 988.67L108.248 988.825L108.239 990.814C108.236 991.341 108.313 991.864 108.467 992.366L108.728 993.218C109.03 994.204 109.769 994.997 110.74 995.377C111.027 995.49 111.329 995.564 111.637 995.597L113.267 995.774C114.029 995.856 114.799 995.648 115.419 995.191C115.865 994.863 116.213 994.42 116.423 993.913L116.752 993.122C116.98 992.571 117.126 991.99 117.182 991.399L117.263 990.557C117.381 989.336 117.257 988.107 116.899 986.939C116.615 986.012 116.187 985.135 115.63 984.34Z" stroke="#183851" stroke-width="7"/>
<path d="M89.2457 985.45L88.6272 980.968C88.615 980.879 88.5938 980.792 88.5638 980.708C88.2344 979.778 87.0169 979.464 86.2483 980.111L85.172 981.016C83.3832 982.522 81.832 984.265 80.5658 986.192L80.4847 986.316L79.5301 988.102C79.2905 988.551 79.1212 989.03 79.0276 989.526L78.8525 990.453C78.6678 991.43 78.9654 992.437 79.6599 993.184C79.8682 993.408 80.1078 993.604 80.372 993.766L81.7175 994.591C82.3924 995.004 83.2073 995.155 83.9927 995.012C84.5374 994.913 85.0433 994.677 85.4581 994.328L86.1477 993.747C86.6118 993.357 87.0143 992.905 87.3428 992.404L87.8317 991.66C88.4963 990.648 88.9518 989.524 89.1741 988.348C89.3547 987.392 89.3788 986.415 89.2457 985.45Z" stroke="#183851" stroke-width="7"/>
<path d="M55.3547 892.222L55.4712 896.724C55.4735 896.812 55.485 896.901 55.5054 896.988C55.7296 897.942 56.901 898.384 57.7296 897.826L58.9188 897.025C60.8688 895.712 62.6087 894.139 64.0863 892.352L64.1789 892.24L65.3341 890.556C65.6193 890.141 65.839 889.687 65.9861 889.209L66.2693 888.289C66.5599 887.345 66.3743 886.319 65.7666 885.508C65.5835 885.264 65.366 885.045 65.1204 884.857L63.8844 883.912C63.2507 883.427 62.449 883.192 61.647 883.255C61.0971 883.298 60.5714 883.479 60.1236 883.781L59.3647 884.292C58.8591 884.632 58.408 885.04 58.0248 885.503L57.4476 886.201C56.6776 887.132 56.1017 888.197 55.7503 889.338C55.4628 890.272 55.3294 891.245 55.3547 892.222Z" stroke="#183851" stroke-width="7"/>
<path d="M134.108 921.242L132.171 925.271C132.133 925.351 132.103 925.435 132.081 925.521C131.85 926.458 132.679 927.35 133.645 927.204L135.162 926.973C137.534 926.613 139.835 925.932 142.001 924.949L142.126 924.892L143.975 923.854C144.404 923.613 144.795 923.311 145.135 922.959L145.863 922.204C146.537 921.505 146.828 920.522 146.649 919.552C146.593 919.255 146.495 918.966 146.357 918.694L145.695 917.39C145.326 916.663 144.688 916.098 143.919 915.816C143.413 915.63 142.872 915.575 142.346 915.654L141.391 915.8C140.778 915.893 140.183 916.069 139.623 916.323L138.74 916.723C137.641 917.222 136.651 917.92 135.819 918.783C135.121 919.506 134.544 920.336 134.108 921.242Z" stroke="#183851" stroke-width="7"/>
<path d="M144.786 941.008L140.283 942.194C140.194 942.217 140.107 942.249 140.024 942.289C139.124 942.723 138.978 943.898 139.75 944.509L140.928 945.442C142.796 946.922 144.871 948.146 147.094 949.079L147.226 949.134L149.274 949.8C149.758 949.958 150.265 950.048 150.777 950.068L151.838 950.109C152.853 950.148 153.832 949.729 154.484 948.977C154.682 948.748 154.845 948.493 154.969 948.22L155.57 946.889C155.896 946.167 155.918 945.354 155.63 944.622C155.438 944.135 155.117 943.704 154.699 943.372L153.954 942.783C153.471 942.399 152.934 942.083 152.358 941.841L151.464 941.466C150.327 940.989 149.104 940.719 147.86 940.671C146.825 940.631 145.788 940.745 144.786 941.008Z" stroke="#183851" stroke-width="7"/>
<path d="M134.32 967.918L129.601 967.554C129.508 967.547 129.415 967.549 129.323 967.559C128.308 967.672 127.769 968.742 128.298 969.594L129.046 970.797C130.282 972.788 131.805 974.606 133.568 976.196L133.68 976.297L135.354 977.568C135.772 977.885 136.234 978.143 136.726 978.334L137.656 978.696C138.628 979.073 139.715 979.005 140.605 978.513C140.872 978.365 141.116 978.182 141.329 977.968L142.41 976.887C142.957 976.34 143.256 975.607 143.247 974.841C143.24 974.312 143.086 973.79 142.8 973.331L142.322 972.561C142.002 972.044 141.607 971.573 141.149 971.16L140.465 970.543C139.543 969.711 138.467 969.05 137.297 968.595C136.343 968.225 135.339 967.996 134.32 967.918Z" stroke="#183851" stroke-width="7"/>
<path d="M110.143 911.297L112.67 915.191C112.72 915.267 112.777 915.339 112.84 915.404C113.546 916.131 114.789 915.909 115.215 914.981L115.767 913.779C116.726 911.691 117.367 909.48 117.669 907.218L117.69 907.064L117.773 905.076C117.795 904.551 117.737 904.027 117.602 903.521L117.372 902.659C117.106 901.665 116.397 900.848 115.441 900.436C115.158 900.314 114.859 900.23 114.552 900.186L112.93 899.955C112.169 899.847 111.391 900.029 110.754 900.465C110.296 900.778 109.933 901.207 109.703 901.706L109.345 902.486C109.096 903.029 108.929 903.604 108.851 904.192L108.738 905.033C108.576 906.247 108.654 907.477 108.968 908.655C109.218 909.592 109.614 910.483 110.143 911.297Z" stroke="#183851" stroke-width="7"/>
<path d="M11.0944 903.253L15.0776 903.739C15.1567 903.749 15.2364 903.75 15.3155 903.743C16.1374 903.67 16.5566 902.778 16.0734 902.131L14.8906 900.547C13.3857 898.531 11.6574 896.673 9.73635 895.008L9.66638 894.947L7.7473 893.497C7.43182 893.259 7.08738 893.058 6.72177 892.9L5.37331 892.314C4.63511 891.993 3.78071 892.066 3.12653 892.504C2.90403 892.653 2.71228 892.84 2.56049 893.055L2.04758 893.782C1.54884 894.489 1.37234 895.362 1.55773 896.205C1.65412 896.643 1.84531 897.059 2.11902 897.426L2.82316 898.369C3.20789 898.884 3.64973 899.359 4.14085 899.785L5.07744 900.597C5.92853 901.335 6.89437 901.942 7.93921 902.396C8.9421 902.831 10.0059 903.12 11.0944 903.253Z" stroke="#183851" stroke-width="7"/>
<path d="M88.288 907.305L83.7806 923.041C83.2754 924.805 85.1847 926.274 86.8644 925.415C87.1027 925.293 87.3618 925.214 87.6286 925.183L105.364 923.117C111.797 922.367 118.171 924.639 122.496 929.224C124.272 931.107 125.639 933.315 126.519 935.721L127.807 939.243C129.602 944.151 129.473 949.546 127.446 954.418C125.952 958.008 123.433 961.115 120.672 963.932C117.483 967.187 115.007 970.381 114.139 970.489C113.194 970.606 106.466 971.875 100.858 972.12C97.722 972.257 94.8273 970.918 92.4889 968.931L82.4756 960.423C77.126 955.877 68.6006 958.84 67.3683 965.674C67.238 966.396 67.0151 967.102 66.7047 967.773L58.0512 986.505C56.8182 989.174 55.9327 991.976 55.415 994.847L54.0635 1002.34C53.4587 1005.69 54.1054 1009.13 55.8883 1012.04C57.456 1014.59 59.8186 1016.6 62.6464 1017.78L64.7657 1018.67C66.9475 1019.58 69.2729 1020.15 71.6516 1020.34L79.2687 1020.96C87.3176 1021.61 95.4416 1020.89 103.27 1018.83L106.769 1017.92C112.299 1016.46 117.634 1014.37 122.653 1011.67C127.332 1009.16 131.738 1006.17 135.412 1002.41C140.853 996.837 146.389 990.4 147.099 989.428C147.366 989.062 148.346 987.581 149.709 985.553C157.4 974.116 163.869 961.315 166.519 947.977L166.799 946.566C167.27 944.199 167.541 941.802 167.611 939.399C167.961 927.425 163.304 915.882 154.689 907.367L151.912 904.623C146.276 899.052 139.394 894.794 131.778 892.164L121.662 888.67C116.448 886.869 110.724 886.879 105.467 888.696C99.7401 890.676 94.973 894.662 92.1225 899.854L89.0621 905.427C88.7339 906.025 88.4743 906.654 88.288 907.305Z" stroke="#183851" stroke-width="7"/>
<path d="M73.0006 909.085L66.9504 917.744C65.5983 919.679 62.6792 919.503 61.5687 917.42L55.8051 908.247C52.6137 903.167 46.9174 900.22 40.9278 900.549C38.675 900.672 36.4715 901.257 34.4534 902.265L27.6541 905.664C25.1783 906.902 22.9818 908.633 21.1998 910.751C17.6436 914.977 15.9336 920.476 16.6318 925.955C17.2194 930.566 17.8598 934.757 18.2824 935.334C18.7546 935.978 21.5763 940.401 24.6304 944.157C27.1325 947.235 31.0589 948.463 35.0209 948.282L46.6147 947.75C51.512 947.526 55.3491 951.908 54.4791 956.733C54.4139 957.094 54.3228 957.45 54.2065 957.798L47.1387 978.945C45.7063 983.231 43.5996 987.261 40.8981 990.883L34.9769 998.822C33.1297 1001.3 30.5055 1003.08 27.5237 1003.89C24.6019 1004.69 21.5002 1004.5 18.6959 1003.36L16.569 1002.49C14.826 1001.78 13.1883 1000.84 11.7017 999.684L7.44699 996.381C-0.743933 990.024 -7.13946 981.644 -11.1109 972.066L-13.3501 966.666C-19.2764 956.132 -22.669 944.333 -22.9359 932.25C-23.0322 927.889 -23.0602 924.46 -22.9385 923.785C-20.9147 912.562 -19.6973 901.158 -13.4782 891.599L-9.90017 886.1C-6.69288 881.171 -2.70023 876.799 1.91936 873.16C10.5238 866.381 20.9898 862.386 31.9226 861.706L38.3117 861.309C45.34 860.872 52.3468 862.452 58.5076 865.863L66.0291 870.027C72.6173 873.674 76.8338 880.486 77.1602 888.01C77.2296 889.608 77.1212 891.21 76.8372 892.785L74.5846 905.276C74.3377 906.645 73.7973 907.944 73.0006 909.085Z" stroke="#183851" stroke-width="7"/>
</svg>
